<svg id="Layer_1" data-name="Layer 1" xmlns="http://www.w3.org/2000/svg" viewBox="0 0 1200 1200"><defs><style>.cls-1{fill:#e9e8e8;}.cls-2{fill:#1d252f;}.cls-3{fill:#9ed4c0;}.cls-4,.cls-7{fill:#fff;}.cls-10,.cls-11,.cls-12,.cls-13,.cls-5,.cls-8{fill:none;}.cls-10,.cls-11,.cls-12,.cls-13,.cls-5,.cls-7,.cls-8{stroke:#1d252e;}.cls-10,.cls-12,.cls-13,.cls-5,.cls-7,.cls-8{stroke-linecap:round;}.cls-10,.cls-12,.cls-5,.cls-7,.cls-8{stroke-linejoin:round;}.cls-5,.cls-7{stroke-width:4px;}.cls-6{fill:#9dd5c0;}.cls-13,.cls-8{stroke-width:3px;}.cls-9{fill:#1d252e;}.cls-10{stroke-width:2px;}.cls-11{stroke-miterlimit:10;}</style></defs><path id="Path-141" class="cls-1" d="M441.86,467.29c110.69-74.84,365-274.08,498.13-158.15s60.26,672.6-332,612.66c-147.36-22.52-370-34.95-401.22-104C154.88,702.94,372.75,514,441.86,467.29Z"/><path class="cls-2" d="M877.21,396.45V285.56a57.69,57.69,0,0,0-57.62-57.62H562.19a57.69,57.69,0,0,0-57.62,57.62v45h-2.19v38.8h2.19v9h-2.19v61.14h2.19v2.29h-2.19V503h2.19V903.92a57.68,57.68,0,0,0,57.62,57.62h257.4a57.68,57.68,0,0,0,57.62-57.62V485.6h2.19V396.45Z"/><path class="cls-3" d="M853.63,281.5V912c0,14.52-11.68,26.41-26.33,27.15-.48,0-.95,0-1.43,0h-270c-.49,0-1,0-1.43,0-14.65-.74-26.35-12.63-26.35-27.15V281.5c0-15,12.47-27.18,27.78-27.18h46.72v5.54a18.42,18.42,0,0,0,18.63,18.21H760.52a18.43,18.43,0,0,0,18.62-18.21v-5.54h46.73C841.18,254.32,853.63,266.51,853.63,281.5Z"/><circle class="cls-4" cx="736.51" cy="258.67" r="4.34"/><rect class="cls-4" x="645.61" y="254.32" width="78.14" height="8.69" rx="4.34"/><path class="cls-4" d="M824.12,480.76V628.42a10,10,0,0,1-10,10H568.52a10,10,0,0,1-10-10V480.76a10,10,0,0,1,10-10h245.6A10,10,0,0,1,824.12,480.76Z"/><path class="cls-5" d="M824.12,546.06v82.36a10,10,0,0,1-10,10H568.52a10,10,0,0,1-10-10V480.76a10,10,0,0,1,10-10H721.29"/><rect class="cls-2" x="580.78" y="580.45" width="93.8" height="11.14" rx="5.57"/><rect class="cls-2" x="580.78" y="603.22" width="119.43" height="11.14" rx="5.57"/><rect class="cls-2" x="558.51" y="497.58" width="265.61" height="39.25"/><rect class="cls-6" x="719.16" y="448.09" width="127.81" height="95.86" rx="47.93"/><path class="cls-5" d="M803.81,448.32A48,48,0,0,1,847,496h0a47.94,47.94,0,0,1-45.1,47.85"/><path class="cls-5" d="M779,544H767.09a47.77,47.77,0,0,1-21-4.83"/><path class="cls-5" d="M730,465.63a47.83,47.83,0,0,1,37.07-17.54H779"/><path class="cls-7" d="M771.4,520.73a4.93,4.93,0,0,1-3.5-1.45l-16.53-16.52a4.94,4.94,0,0,1,7-7l13,13,34.26-34.27a4.94,4.94,0,0,1,7,7l-37.76,37.76A4.93,4.93,0,0,1,771.4,520.73Z"/><line class="cls-5" x1="594.85" y1="669.27" x2="786.85" y2="669.27"/><line class="cls-5" x1="641.86" y1="688.39" x2="739.84" y2="688.39"/><path id="Path-27" class="cls-4" d="M302.12,339.4c1.62-5.85,5.45-6.45,7.12-3.27s-1.77,11.33-1.59,18.46c0,0,36,77.67,39.17,78.2,0,0,22.95,2.57,26.46,5.86s2.41,19.31-6.58,23.92-31.86-7.31-32.44-7.35c-12.15-.7-40.82-88.56-40.82-88.56-7-13.54-10.21-17.74-13.78-28.51-2.09-11.46,12.1-16.75,18-8.23a86.67,86.67,0,0,1,4.53,9.51"/><path id="Path-26" class="cls-8" d="M302.15,339.43a86.67,86.67,0,0,0-4.53-9.51c-5.86-8.52-20.05-3.23-18,8.23,3.57,10.77,6.81,15,13.78,28.51,0,0,28.87,86.25,40.82,88.56"/><path id="Path-26-2" data-name="Path-26" class="cls-8" d="M346.82,432.79c-3.16-.53-38-74.06-39.19-77.39"/><path id="Path-27-2" data-name="Path-27" class="cls-8" d="M302.12,339.4c1.62-5.85,5.45-6.45,7.12-3.27s-1.77,11.33-1.59,18.46"/><path id="Path-33" class="cls-4" d="M396.57,865.29l3.93,43.58,6.5,16.62-64,22.93-2.54-1.12.18-1.66c12.41-17.77,25.44-36,29.78-49.15L367,869.64Z"/><path id="Path-33-2" data-name="Path-33" class="cls-8" d="M397.9,879.25s1.65,29,3.79,33.33A76.43,76.43,0,0,1,407,925.49l-64,22.93a2,2,0,0,1-2.54-1.12,1.78,1.78,0,0,1,.18-1.66c19.92-29.41,30.85-46.42,29.78-49.15l-.81-8.72"/><path id="Path-33-3" data-name="Path-33" class="cls-4" d="M486.75,860.15l3.93,43.59,6.49,16.62-64.59,23.31L430,942.55l.19-1.66c12.54-17.85,26.05-36.38,30.39-49.53l-3.45-26.85Z"/><path id="Path-33-4" data-name="Path-33" class="cls-8" d="M488.08,874.12s1.65,29,3.79,33.33a76.52,76.52,0,0,1,5.3,12.91l-64.59,23.31a2,2,0,0,1-2.56-1.12,1.76,1.76,0,0,1,.19-1.66c20.14-29.55,31.45-46.81,30.39-49.53l-.81-8.73"/><polygon id="Path-36" class="cls-4" points="435.43 444.54 423.53 441.63 419.55 419.95 422.66 412.44 423.33 404.85 428.78 403.3 430.67 397.6 428.19 392.3 426.17 390.94 426.81 380.85 389.4 384.52 387.46 386.1 384.23 396.54 383.5 407.85 387.41 416.71 392.64 421.66 399.39 424.54 401.62 423.91 404.65 441.85 388.48 443.51 404.25 459.69 436.42 458.87 435.43 444.54"/><path id="Path-20" class="cls-8" d="M431.42,443.92l-8.36-1.32-3.55-22.33s2.7-6.34,3.15-7.83a28.46,28.46,0,0,0,.63-7.55c6-1.2,8.22-4.15,6.92-8.91-1.22-4.44-4.44-5.71-9.78-4.06"/><path id="Path-21" class="cls-8" d="M386,391.89q-4.38,11.49-1.66,18.56,6.36,14,18.14,13.87l2.1,17.85-8,1.21"/><path id="Path-31" class="cls-9" d="M465.14,603.83c.74,8.95-1.78,71.79,8.82,137.91,10.36,64.65,20.23,126.48,20.23,126.48q-21.9,6.07-33,7.14t-16.32-2.44L426.33,759.63l-6.2-103.25c-6.28,2.73-13.69,2.64-18.86-1l-5,94.67,5.49,121.49c-11.43,2.76-27.66,6-33.45,6.48a81.93,81.93,0,0,1-19.94-1.21L344,762.44s11.41-150.14,18-157.22C374.69,591.43,452.59,594.82,465.14,603.83Z"/><path id="Path-22" class="cls-8" d="M426.16,387.58c-1.64-.74-5.79-.23-7.36.31"/><path id="Path-23" class="cls-9" d="M427.09,385a25.48,25.48,0,0,0-10.57.22q-.9-1.77-2.15-4-6.42,12.11-26.84,5.62c-20.41-6.48-6.79-42,14.05-33.75q11.28,4.67,13.52,8.94,7.75-1,10.34,2.91Q430.07,370.07,427.09,385Z"/><path id="Path-24" class="cls-6" d="M435.84,444q-10.08,14.12-24,12.09c-13.92-2-18.33-5.62-21.06-12.41-8.17-9-35.79-15-38-13.34S334.32,452.53,339.56,470c.55,1.82,21.13,15,21.64,16.65,2.83,9.31,5,16,5,16-2.57,9.85-2.12,8.34-5.29,43.72q-1.17,23.46-4.57,60.15,38.58,12.55,58.56,12.6t55.17-12.34l-8.45-93.37c1.66-.72,9.21-28.28,4.69-49S455.44,447,435.84,444Z"/><path class="cls-8" d="M361.88,536.59s2.59-39.87,9-46.3"/><path class="cls-6" d="M349.24,509.57l-10.45.17a3.46,3.46,0,0,1-3.17-1.56L317.75,478c-1.36-2.29.68-4.58,3.82-4.66l11.93.18a3.5,3.5,0,0,1,3.17,1.56l16.66,29.08C354.68,506.4,352.38,509.48,349.24,509.57Z"/><path class="cls-10" d="M352.28,501.31l-17.14-27.6L321,473.58c-4.09-.22-3.28,4.37-3.28,4.37l14.61-.05,13.56,21.28"/><ellipse class="cls-11" cx="322.69" cy="481.36" rx="0.91" ry="1.04" transform="translate(-150.96 147.46) rotate(-20.98)"/><line class="cls-12" x1="334.74" y1="477.58" x2="337.07" y2="481.14"/><path id="Path-93" class="cls-4" d="M428.72,529.77c-7.9,8.38-20.81,6.23-20.81,6.23l-54.23-24.66a23.69,23.69,0,0,1-13.28,1.91c-6.92-1.25-18.26-9.35-19.66-17.17s19.46-6,24.53-5.74q5.09.3,16.15,7l46.78,10.58,8.53-8.4,24.74,18.37Z"/><path id="Path-93-2" data-name="Path-93" class="cls-13" d="M428.72,529.77c-7.9,8.38-20.57,6.17-20.57,6.17l-54.47-24.6a23.69,23.69,0,0,1-13.28,1.91c-6.92-1.25-18.26-9.35-19.66-17.17s19.46-6,24.53-5.74q5.09.3,16.15,7l46.78,10.58"/><path id="Path-88" class="cls-6" d="M436.91,527.91l-27.38-27.15c16.62-24.07,34.72-58,47.18-52.83,20.6,8.6,17.57,30.34,15.25,40.34C466.15,513.31,436.91,527.91,436.91,527.91Z"/><path id="Path-88-2" data-name="Path-88" class="cls-13" d="M471.24,490.6c-11.07,23.22-34.33,37.31-34.33,37.31"/><path class="cls-13" d="M425.08,489.11c-3.25,1.26-5.53,4.09-7.81,8"/><line class="cls-8" x1="407.97" y1="960.33" x2="337.95" y2="960.33"/><line class="cls-8" x1="509.73" y1="960.33" x2="427.67" y2="960.33"/></svg>